<svg width="34" height="37" viewBox="0 0 34 37" fill="none" xmlns="http://www.w3.org/2000/svg">
<path opacity="0.1" d="M18.2103 36.7C12.9436 36.7 8.59359 34.95 5.16025 31.45C1.72692 27.95 0.0102539 23.6333 0.0102539 18.5C0.0102539 13.3333 1.72692 9.01667 5.16025 5.55C8.59359 2.05 12.9436 0.300003 18.2103 0.300003C21.3769 0.300003 24.2936 1.05 26.9603 2.55C29.6603 4.01667 31.7603 6.01667 33.2603 8.55L27.3103 12C26.4436 10.4333 25.2103 9.21667 23.6103 8.35C22.0103 7.45 20.2103 7 18.2103 7C14.8103 7 12.0603 8.06667 9.96025 10.2C7.89359 12.3333 6.86025 15.1 6.86025 18.5C6.86025 21.8667 7.89359 24.6167 9.96025 26.75C12.0603 28.8833 14.8103 29.95 18.2103 29.95C20.2103 29.95 22.0103 29.5167 23.6103 28.65C25.2436 27.75 26.4769 26.5333 27.3103 25L33.2603 28.45C31.7603 30.9833 29.6769 33 27.0103 34.5C24.3436 35.9667 21.4103 36.7 18.2103 36.7Z" fill="black"/>
</svg>
