<svg fill="none" height="63" viewBox="0 0 162 63" width="162" xmlns="http://www.w3.org/2000/svg"><g fill="#383838"><path d="m82.2427 23.568h12.4808c.5714.2135 2.318 1.0397 2.318 3.1424 0 2.0688-1.3414 3.0351-1.8583 3.331h-12.9405zm15.7338 7.5418c.8571-.9165 1.6635-2.3358 1.6635-4.3967 0-3.5248-2.8439-5.2793-4.3464-5.714-.1167-.0328-.2373-.0496-.3584-.0497h-13.9911c-.3444 0-.6747.1379-.9182.3835-.2436.2455-.3804.5785-.3804.9258v18.3307c0 .3473.1368.6803.3804.9258.2435.2456.5738.3835.9182.3835s.6747-.1379.9182-.3835c.2436-.2455.3804-.5785.3804-.9258v-7.9241h13.2457c.8727 0 1.5583 1.6039 1.5479 2.0871v5.837c0 .3473.1368.6803.3804.9258.2435.2456.5738.3835.9182.3835s.6747-.1379.9183-.3835c.2435-.2455.3803-.5785.3803-.9258v-5.985c0-.0864-.0182-.1702-.026-.2618-.0753-.8865-.7038-2.3032-1.6375-3.2354"/><path d="m110.121 41.8987c-.345 0-.675-.1379-.918-.3834-.244-.2456-.381-.5786-.381-.9259v-18.3844c0-.3472.137-.6803.381-.9258.243-.2456.573-.3835.918-.3835.344 0 .675.1379.918.3835.244.2455.38.5786.38.9258v18.3844c0 .3473-.136.6803-.38.9259-.243.2455-.574.3834-.918.3834"/><path d="m130.81 23.568c-1.541 0-3.047.4608-4.329 1.324-1.281.8633-2.28 2.0902-2.869 3.5257-.59 1.4355-.744 3.0151-.444 4.539.301 1.5239 1.043 2.9237 2.133 4.0224 1.089 1.0987 2.478 1.8469 3.989 2.15 1.512.3032 3.078.1476 4.502-.447s2.64-1.6016 3.497-2.8935c.856-1.2919 1.313-2.8108 1.313-4.3645-.003-2.0828-.824-4.0796-2.285-5.5524s-3.441-2.3012-5.507-2.3037zm0 18.3308c-2.055 0-4.063-.6144-5.772-1.7654-1.708-1.1509-3.04-2.7868-3.826-4.7008s-.992-4.0202-.591-6.052c.401-2.0319 1.39-3.8983 2.843-5.3633 1.453-1.4649 3.304-2.4625 5.319-2.8667 2.016-.4041 4.104-.1967 6.003.5961 1.898.7928 3.521 2.1354 4.662 3.8579 1.142 1.7226 1.751 3.7478 1.751 5.8195-.003 2.7771-1.099 5.4395-3.046 7.4032-1.948 1.9638-4.589 3.0683-7.343 3.0715"/><path d="m69.4153 39.2068h-16.5077v-6.6043h7.6071c.3445 0 .6748-.138.9183-.3835.2435-.2456.3803-.5786.3803-.9259 0-.3472-.1368-.6803-.3803-.9258-.2435-.2456-.5738-.3835-.9183-.3835h-7.6071v-6.3843h16.5077c.3458 0 .6774-.1385.9219-.3851.2445-.2465.3819-.5809.3819-.9295 0-.3487-.1374-.683-.3819-.9295-.2445-.2466-.5761-.3851-.9219-.3851h-17.8115c-.3444 0-.6747.138-.9183.3835-.2435.2456-.3803.5786-.3803.9259v18.2416c0 .3473.1368.6803.3803.9259.2436.2455.5739.3835.9183.3835h17.8115c.3456 0 .6771-.1385.9215-.3849s.3817-.5806.3817-.9291c0-.3484-.1373-.6826-.3817-.929s-.5759-.3849-.9215-.3849"/><path d="m40.0292 41.8988c-.1721-.0006-.3423-.0356-.5008-.103-.1585-.0675-.3021-.166-.4225-.2898l-15.6806-15.9739v15.0573c0 .3473-.1368.6803-.3803.9259-.2436.2455-.5739.3835-.9183.3835s-.6747-.138-.9182-.3835c-.2436-.2456-.3804-.5786-.3804-.9259v-18.2351c.0008-.2592.078-.5124.2216-.7274s.3473-.3821.5853-.4803c.2379-.0981.4994-.1229.7514-.071.2519.0518.4828.1779.6636.3622l17.9025 18.2351c.1787.1839.2998.4168.3479.6697s.0213.5145-.0773.752c-.0985.2376-.2643.4406-.4767.5836s-.4618.2197-.7172.2206"/></g><path d="m39.8669 23.8221c.2826 0 .5587-.0845.7936-.2428.2349-.1582.418-.3832.5262-.6463.1081-.2632.1364-.5528.0812-.8322-.0551-.2794-.1911-.536-.3909-.7374-.1998-.2015-.4543-.3386-.7314-.3942s-.5643-.0271-.8253.0819c-.261.1091-.4841.2937-.6411.5305-.1569.2369-.2407.5153-.2407.8002 0 .382.1505.7483.4184 1.0184s.6312.4219 1.01.4219z" fill="#f85b32"/></svg>