<svg width="28" height="26" viewBox="0 0 28 26" fill="none" xmlns="http://www.w3.org/2000/svg">
<path opacity="0.1" d="M19.5936 26L12.5436 13.85H7.29356V26H0.393555V-9H14.3936C17.6269 -9 20.3769 -7.86667 22.6436 -5.6C24.9102 -3.33333 26.0436 -0.599999 26.0436 2.6C26.0436 4.76667 25.4269 6.78333 24.1936 8.65C22.9602 10.4833 21.3269 11.8667 19.2936 12.8L27.0436 26H19.5936ZM7.29356 -2.55V7.8H14.3936C15.6936 7.8 16.8102 7.3 17.7436 6.3C18.6769 5.26667 19.1436 4.03333 19.1436 2.6C19.1436 1.16667 18.6769 -0.0500002 17.7436 -1.05C16.8102 -2.05 15.6936 -2.55 14.3936 -2.55H7.29356Z" fill="black"/>
</svg>
